<svg width="38" height="47" viewBox="0 0 38 47" fill="none" xmlns="http://www.w3.org/2000/svg">
<mask id="path-1-inside-1_15_21" fill="white">
<path fill-rule="evenodd" clip-rule="evenodd" d="M3.74935 0.0588379C2.0925 0.0588379 0.749352 1.40199 0.749352 3.05884V34.2991C0.749352 35.956 2.0925 37.2991 3.74936 37.2991H11.6294L19.3695 46.8754L27.1103 37.2991H34.9896C36.6465 37.2991 37.9896 35.956 37.9896 34.2991V3.05884C37.9896 1.40198 36.6465 0.0588379 34.9896 0.0588379H3.74935Z"/>
</mask>
<path fill-rule="evenodd" clip-rule="evenodd" d="M3.74935 0.0588379C2.0925 0.0588379 0.749352 1.40199 0.749352 3.05884V34.2991C0.749352 35.956 2.0925 37.2991 3.74936 37.2991H11.6294L19.3695 46.8754L27.1103 37.2991H34.9896C36.6465 37.2991 37.9896 35.956 37.9896 34.2991V3.05884C37.9896 1.40198 36.6465 0.0588379 34.9896 0.0588379H3.74935Z" fill="#14202C"/>
<path d="M11.6294 37.2991L12.4072 36.6705L12.107 36.2991H11.6294V37.2991ZM19.3695 46.8754L18.5918 47.504L19.3695 48.4662L20.1472 47.5041L19.3695 46.8754ZM27.1103 37.2991V36.2991H26.6328L26.3326 36.6705L27.1103 37.2991ZM1.74935 3.05884C1.74935 1.95427 2.64478 1.05884 3.74935 1.05884V-0.941162C1.54021 -0.941162 -0.250648 0.849708 -0.250648 3.05884H1.74935ZM1.74935 34.2991V3.05884H-0.250648V34.2991H1.74935ZM3.74936 36.2991C2.64479 36.2991 1.74935 35.4037 1.74935 34.2991H-0.250648C-0.250648 36.5083 1.54022 38.2991 3.74936 38.2991V36.2991ZM11.6294 36.2991H3.74936V38.2991H11.6294V36.2991ZM20.1472 46.2468L12.4072 36.6705L10.8517 37.9277L18.5918 47.504L20.1472 46.2468ZM26.3326 36.6705L18.5918 46.2468L20.1472 47.5041L27.888 37.9278L26.3326 36.6705ZM34.9896 36.2991H27.1103V38.2991H34.9896V36.2991ZM36.9896 34.2991C36.9896 35.4037 36.0942 36.2991 34.9896 36.2991V38.2991C37.1988 38.2991 38.9896 36.5083 38.9896 34.2991H36.9896ZM36.9896 3.05884V34.2991H38.9896V3.05884H36.9896ZM34.9896 1.05884C36.0942 1.05884 36.9896 1.95427 36.9896 3.05884H38.9896C38.9896 0.849696 37.1988 -0.941162 34.9896 -0.941162V1.05884ZM3.74935 1.05884H34.9896V-0.941162H3.74935V1.05884Z" fill="#202C35" mask="url(#path-1-inside-1_15_21)"/>
</svg>
