<svg width="426" height="240" viewBox="0 0 426 240" fill="none" xmlns="http://www.w3.org/2000/svg">
<path d="M15.0562 0.306702L11.2701 14.669L0.993576 45.117V49.7129L15.0562 54.8833L21.5467 57.7558L50.2128 63.5007L72.9294 70.3946L127.017 104.864M127.017 104.864L141.44 118.652M127.017 104.864L128.639 91.1646M127.017 104.864L136.752 96.2467M176.236 118.652L157.846 131.291H155.863M176.236 118.652L175.154 116.354M176.236 118.652L176.777 119.801M155.863 131.291L172.45 144.504L183.267 133.589L181.104 128.993M155.863 131.291L150.482 127.004M150.482 127.004L148.651 125.546L141.44 118.652M150.482 127.004L155.863 123.248L159.469 124.397L174.072 114.056M174.072 114.056L172.45 112.019M174.072 114.056L175.154 116.354M168.123 106.587L161.091 111.758M168.123 106.587L164.877 101.992M168.123 106.587L169.496 108.311M154.06 116.928L147.57 123.248M154.06 116.928L151.356 112.332M154.06 116.928L161.091 111.758M151.356 112.332L157.846 106.587M151.356 112.332L146.398 115.492M141.44 118.652L146.398 115.492M157.846 106.587L161.091 111.758M157.846 106.587L164.877 101.992M164.877 101.992L162.173 96.2467M164.877 101.992L168.664 97.9701M162.173 96.2467L143.243 109.46L146.398 115.492M162.173 96.2467L159.469 91.1646M155.142 83.0334L147.57 88.2038M155.142 83.0334L159.469 91.1646M155.142 83.0334L128.639 80.1609V85.9058M155.142 83.0334L162.173 77.8629L172.45 93.9487M147.57 88.2038L159.469 91.1646M147.57 88.2038L128.639 85.9058M147.57 88.2038L141.44 92.7614M136.752 96.2467L141.44 103.141L159.469 91.1646M136.752 96.2467L141.44 92.7614M128.639 85.9058V91.1646M128.639 91.1646L141.44 92.7614M172.45 93.9487L178.94 101.992M172.45 93.9487L168.664 97.9701M178.94 101.992L174.072 104.864M178.94 101.992L181.104 106.587M174.072 104.864L169.496 108.311M174.072 104.864L168.664 97.9701M169.496 108.311L172.45 112.019M181.104 106.587L177.318 108.311M181.104 106.587L185.431 114.056M177.318 108.311L172.45 112.019M177.318 108.311L181.104 112.332M175.154 116.354L181.104 112.332M181.104 112.332L183.267 115.492M183.267 115.492L185.431 114.056M183.267 115.492L176.777 119.801M185.431 114.056L187.594 118.652M176.777 119.801L178.94 124.397M181.104 128.993L189.758 123.248L187.594 118.652M181.104 128.993L178.94 124.397M178.94 124.397L187.594 118.652M155.863 163.462V158.866M155.863 158.866L134.048 151.972L132.966 156.568L151.356 162.313L155.863 158.866ZM183.267 149.674V138.759L185.431 135.312M183.267 149.674L174.072 145.653M183.267 149.674L195.707 157.717M195.707 157.717L200.034 160.015M195.707 157.717L198.411 153.696L203.279 150.823M200.034 160.015L205.443 162.313M200.034 160.015L197.33 163.462M205.443 162.313H218.965V158.866L213.556 153.696L206.525 149.674M205.443 162.313L208.147 157.717M206.525 149.674L203.279 150.823M206.525 149.674L209.77 147.951M206.525 149.674L199.493 139.333M185.431 135.312L192.462 128.993L199.493 139.333M185.431 135.312L194.085 145.653M194.085 145.653L198.411 149.674L203.279 150.823M194.085 145.653L200.034 141.631L199.493 139.333M227.619 162.313L254.121 157.717L274.674 162.313L302.8 160.59L317.403 164.037H351.478L367.163 172.079H372.572L379.062 169.207L398.534 172.079L407.729 189.314L414.76 192.761L418.546 196.208V200.229L414.76 204.251L418.546 216.89L423.871 235.273M425.036 239.295L423.871 235.273M423.871 235.273H418.546" stroke="#2F3841"/>
</svg>
