<svg width="584" height="657" viewBox="0 0 584 657" fill="none" xmlns="http://www.w3.org/2000/svg">
<path d="M0.518387 16.4707L49.1968 44.6208L156.83 108.964L184.415 117.007L206.049 123.326L231.47 135.39L265.545 142.859M265.545 142.859L277.985 129.645M265.545 142.859L272.036 155.497M265.545 142.859H274.199M277.985 129.645L300.161 0.959473M277.985 129.645L285.017 142.859M277.985 129.645L274.199 142.859M285.017 142.859L274.199 153.391M285.017 142.859H274.199M285.017 142.859L272.036 155.497M285.017 142.859L347.217 155.497L419.153 169.285L479.73 129.645H521.377L583.577 95.176M272.036 155.497L274.199 153.391M272.036 155.497L357.988 295.099M274.199 142.859V153.391M583.577 594.408L485.139 493.298L482.434 482.383L479.73 457.105L432.133 394.486L383.455 336.462L357.988 295.099M357.988 295.099L331.531 318.078L322.337 332.441L307.733 340.484L300.161 353.122V367.485L285.017 376.676L268.25 396.209L257.432 414.593V423.785L268.25 441.019L241.206 544.428L216.867 611.069L200.1 617.963H175.761L128.705 656.453" stroke="#2F3841"/>
</svg>
