<svg width="208" height="212" viewBox="0 0 208 212" fill="none" xmlns="http://www.w3.org/2000/svg">
<path d="M0.436646 0.73114L8.05587 11.072M10.1723 13.9444L8.05587 11.072M10.1723 13.9444L0.436646 11.072M10.1723 13.9444L26.9393 17.9659L44.7881 22.5618L59.3916 28.8812L67.5046 36.3496L82.649 43.8179L85.3534 46.6904L98.8752 47.8394L105.366 50.7118H113.479L133.491 60.4782L159.453 74.8404L157.83 82.8833M8.05587 11.072L10.1723 5.90156L37.7567 11.072M157.83 82.8833L156.748 79.4364L145.931 71.3935L131.868 62.7761L119.969 65.6486M157.83 82.8833L156.748 84.3195M151.34 97.2456L155.667 85.7558L156.748 84.3195M151.34 97.2456L138.359 92.6497L136.195 95.5221L122.673 91.5007M151.34 97.2456L156.748 95.5221M151.34 97.2456L155.667 102.416M122.673 91.5007L121.592 95.5221M122.673 91.5007L109.693 87.4792M109.693 87.4792L108.07 94.3731M109.693 87.4792L102.661 84.6068M102.661 84.6068L90.7621 77.7129M102.661 84.6068L109.693 69.67L119.969 65.6486M119.969 65.6486L122.673 60.4782M156.748 84.3195V95.5221M156.748 95.5221L156.207 98.9691M155.667 102.416L156.207 98.9691M155.667 102.416L156.748 104.714M156.207 98.9691L161.075 100.693M161.075 100.693L163.239 94.9476M161.075 100.693L163.239 102.416M156.748 104.714L153.503 116.204V135.162H141.063L144.308 192.037L168.648 211.569M156.748 104.714L163.239 107.586H166.484M166.484 107.586L167.566 101.267M166.484 107.586L181.628 111.033M181.628 111.033L183.251 97.2456M181.628 111.033H190.282L196.232 108.161L196.773 102.416L198.395 99.5435M198.395 99.5435L202.182 102.416L204.345 99.5435L200.559 96.6711M198.395 99.5435L200.559 96.6711M200.559 96.6711L193.528 94.9476L194.609 88.6282M200.559 96.6711L202.182 94.3731L205.968 92.6497L207.049 90.9262L197.314 89.1278M194.609 88.6282L197.314 89.1278M194.609 88.6282L182.169 85.7558L184.333 80.5854M159.994 77.7129L164.861 78.8619L169.729 77.1384L184.333 80.5854M184.333 80.5854L185.955 76.5639H196.232L198.936 78.2874L197.314 89.1278" stroke="#2F3841"/>
</svg>
