<svg width="194" height="215" viewBox="0 0 194 215" fill="none" xmlns="http://www.w3.org/2000/svg">
<path d="M193.036 0.593872L178.433 7.48776L169.779 10.3602L163.829 17.8286V28.1694L153.553 37.9358L144.899 52.298M144.899 52.298L140.572 45.4041L144.899 42.5317L140.572 37.9358M144.899 52.298L140.572 56.894M140.572 56.894L136.245 52.298M140.572 56.894L134.081 64.9368L130.295 68.9583M130.295 68.9583L127.591 70.6817M130.295 68.9583L141.113 81.5971M127.591 70.6817L138.408 83.895M127.591 70.6817L119.478 76.4266L131.918 89.6399M138.408 83.895L141.113 81.5971M138.408 83.895L131.918 89.6399M141.113 81.5971L148.144 72.9797L153.553 66.6603L155.175 62.6389H161.666L193.036 37.9358M131.918 89.6399L130.295 91.3634L127.591 104.577M127.591 104.577L148.144 108.024H170.32L184.923 95.9593L193.036 94.2359M127.591 104.577L119.478 108.024L104.874 116.067L97.3023 122.96L82.1579 134.45L63.7683 151.685M63.7683 151.685L56.7369 161.451L50.7874 173.516L41.5926 187.303L34.0204 189.601L27.5299 193.048L22.1212 196.495L18.3351 200.517L14.549 204.538L9.68117 209.134L0.486359 214.304M63.7683 151.685L55.6552 140.77L48.083 131.003V122.96L50.7874 119.513" stroke="#2F3841"/>
</svg>
